# xmcd
#
# Track frame offsets:
#	150
#	11728
#	25952
#	54637
#	69276
#	92596
#	125732
#	147162
#	165946
#	179253
#	195477
#	214587
#	228770
#	246754
#	259378
#	273111
#
# Disc length: 3916 seconds
#
# Revision: 0
# Processed by: cddbd v1.5.2PL0 Copyright (c) Steve Scherf et al.
# Submitted via: EasyCDDAExtractor 16.0.6.1
#
DISCID=d60f4a10
DTITLE=Various Artist - Smooth Jazz and The City
DYEAR=1900
DGENRE=
TTITLE0=Blue Holiday - Aretha Franklin
TTITLE1=Billy Taylor Trio - Day Dreaming
TTITLE2=Ella Fitzgerald - April In Paris
TTITLE3=Kenny Burrell and John Coltrane - Why Was I Born?
TTITLE4=Jackie McLean - I hear A Rhapsody
TTITLE5=Joe Castro - Yesterdays
TTITLE6=Phil Woods Quartet - Falling In Love All Over Again
TTITLE7=Abbey Lincoln - Lost In The Stars
TTITLE8=Quincy Jones - Carnival
TTITLE9=The Dave Brubeck Quartet - Audrey
TTITLE10=Chet Baker - I've Grown Accustomed To Her Face
TTITLE11=Mack The Knife - Anita O'Day
TTITLE12=Count Basie and Sarah Vaughan - Lover Man
TTITLE13=Sergio Mendes - Satin Doll
TTITLE14=Carmen McRae - Skylark
TTITLE15=Louis Armstrong and Oscar Peterson - Moon Song
EXTD=
EXTT0=
EXTT1=
EXTT2=
EXTT3=
EXTT4=
EXTT5=
EXTT6=
EXTT7=
EXTT8=
EXTT9=
EXTT10=
EXTT11=
EXTT12=
EXTT13=
EXTT14=
EXTT15=
PLAYORDER=
